<?xml version="1.0" encoding="iso-8859-1"?>
<!-- Uploaded to: SVG Repo, www.svgrepo.com, Generator: SVG Repo Mixer Tools -->
<svg version="1.1" id="Layer_1" xmlns="http://www.w3.org/2000/svg" xmlns:xlink="http://www.w3.org/1999/xlink" 
	 viewBox="0 0 307 307" xml:space="preserve">
<g>
	<path style="fill:#F38181;" d="M272.132,299.5H34.868C19.753,299.5,7.5,287.247,7.5,272.132V34.868
		C7.5,19.753,19.753,7.5,34.868,7.5h237.264c15.115,0,27.368,12.253,27.368,27.368v237.264
		C299.5,287.247,287.247,299.5,272.132,299.5z"/>
	<rect x="58.113" y="58.113" style="fill:#95E1D3;" width="190.773" height="190.773"/>
	<polygon style="fill:#EAFFD0;" points="183.138,135.007 248.887,248.887 117.389,248.887 	"/>
	<polygon style="fill:#EAFFD0;" points="100.26,175.887 58.113,248.887 117.389,248.887 129.898,227.221 	"/>
	<g>
		<circle style="fill:#FCE38A;" cx="141.82" cy="119.433" r="16.547"/>
		<g>
			<path style="fill:#414042;" d="M272.132,0H34.868C15.642,0,0,15.642,0,34.868v237.264C0,291.358,15.642,307,34.868,307h237.264
				C291.358,307,307,291.358,307,272.132V34.868C307,15.642,291.358,0,272.132,0z M292,272.132c0,10.955-8.913,19.868-19.868,19.868
				H34.868C23.913,292,15,283.087,15,272.132V34.868C15,23.913,23.913,15,34.868,15h237.264C283.087,15,292,23.913,292,34.868
				V272.132z"/>
			<path style="fill:#414042;" d="M248.887,50.613H58.113c-4.142,0-7.5,3.357-7.5,7.5v190.773c0,4.118,3.362,7.5,7.5,7.5h59.276
				h131.498c4.06,0,7.5-3.304,7.5-7.5V58.113C256.387,53.971,253.029,50.613,248.887,50.613z M241.387,65.613v155.283l-51.754-89.64
				c-2.886-4.998-10.11-4.988-12.99,0l-46.745,80.965l-23.143-40.085c-2.886-4.998-10.11-4.988-12.99,0l-28.151,48.76V65.613
				H241.387z M100.26,190.887l20.978,36.335l-7.823,13.549l-0.356,0.616H71.103L100.26,190.887z M130.38,241.387l6.013-10.415
				c0.001-0.002,0.002-0.004,0.003-0.006l46.742-80.959l52.759,91.38H130.38z"/>
			<path style="fill:#414042;" d="M141.82,143.48c13.259,0,24.046-10.787,24.046-24.047s-10.787-24.047-24.046-24.047
				s-24.046,10.787-24.046,24.047S128.56,143.48,141.82,143.48z M141.82,110.387c4.988,0,9.046,4.059,9.046,9.047
				s-4.058,9.047-9.046,9.047s-9.046-4.059-9.046-9.047C132.773,114.445,136.831,110.387,141.82,110.387z"/>
		</g>
	</g>
</g>
</svg>